<svg xmlns="http://www.w3.org/2000/svg" xmlns:xlink="http://www.w3.org/1999/xlink" viewBox="0 0 200 200"><defs><style>.cls-1,.cls-5{fill:none;}.cls-2{fill:#caf1ff;stroke:#caf1ff;}.cls-2,.cls-5{stroke-linejoin:round;}.cls-3{clip-path:url(#clip-path);}.cls-4{fill:#85dbff;}.cls-5{stroke:#009ee2;stroke-linecap:round;stroke-width:4px;}.cls-10,.cls-6{fill:#fff;}.cls-7{fill:#0071bc;}.cls-8{clip-path:url(#clip-path-2);}.cls-9{clip-path:url(#clip-path-3);}.cls-10{font-size:6.9295px;font-family:Raleway-Bold, Raleway;font-weight:700;letter-spacing:0.3401em;}.cls-11{letter-spacing:0.3071em;}.cls-12{letter-spacing:0.313em;}</style><clipPath id="clip-path"><polygon class="cls-1" points="164.064 162.586 104.52 162.586 104.52 38.489 113.369 38.489 113.369 27.499 156.082 27.499 156.297 38.489 164.064 38.489 164.064 162.586"/></clipPath><clipPath id="clip-path-2"><rect class="cls-1" x="47.6511" y="115.9373" width="56.5633" height="56.5633"/></clipPath><clipPath id="clip-path-3"><polygon class="cls-1" points="115.929 115.832 35.936 115.832 75.933 75.836 115.929 115.832"/></clipPath></defs><title>Reinigung Köln</title><g id="Ebene_3" data-name="Ebene 3"><rect class="cls-1" x="10" y="10" width="180" height="180"/></g><g id="Ebene_1" data-name="Ebene 1"><polygon class="cls-2" points="164.064 162.586 104.52 162.586 104.52 38.489 113.369 38.489 113.369 27.499 156.082 27.499 156.297 38.489 164.064 38.489 164.064 162.586"/><g class="cls-3"><polygon class="cls-4" points="180.458 162.586 120.915 162.586 120.915 38.489 129.764 38.489 129.764 27.499 172.477 27.499 172.692 38.489 180.458 38.489 180.458 162.586"/></g><polygon class="cls-5" points="164.064 162.586 104.52 162.586 104.52 38.489 113.369 38.489 113.369 27.499 156.082 27.499 156.297 38.489 164.064 38.489 164.064 162.586"/><rect class="cls-6" x="115.742" y="48.8911" width="13.8062" height="20.0668"/><rect class="cls-5" x="115.742" y="48.8911" width="13.8062" height="20.0668"/><rect class="cls-6" x="139.9027" y="48.8911" width="13.8062" height="20.0668"/><rect class="cls-6" x="115.742" y="81.3718" width="13.8062" height="20.0668"/><rect class="cls-6" x="139.9027" y="81.3718" width="13.8062" height="20.0668"/><rect class="cls-6" x="115.742" y="109.9003" width="13.8062" height="20.0668"/><rect class="cls-6" x="139.9027" y="109.9003" width="13.8062" height="20.0668"/><rect class="cls-7" x="120.4857" y="143.9038" width="13.8062" height="17.5984"/><rect class="cls-7" x="134.7254" y="143.9038" width="13.8062" height="17.5984"/><rect class="cls-5" x="139.9027" y="48.8911" width="13.8062" height="20.0668"/><rect class="cls-5" x="115.742" y="81.3718" width="13.8062" height="20.0668"/><rect class="cls-5" x="139.9027" y="81.3718" width="13.8062" height="20.0668"/><rect class="cls-5" x="115.742" y="109.9003" width="13.8062" height="20.0668"/><rect class="cls-5" x="139.9027" y="109.9003" width="13.8062" height="20.0668"/><rect class="cls-5" x="120.4857" y="143.9038" width="13.8062" height="17.5984"/><rect class="cls-5" x="134.7254" y="143.9038" width="13.8062" height="17.5984"/><path class="cls-6" d="M104.2144,115.9373v56.5633H47.6511V115.9373h56.5633m0-7H47.6511a7,7,0,0,0-7,7v56.5633a7,7,0,0,0,7,7h56.5633a7,7,0,0,0,7-7V115.9373a7,7,0,0,0-7-7Z"/><path class="cls-6" d="M75.9327,75.8359l39.9962,39.9962H35.9365L75.9327,75.8359m0-7a7,7,0,0,0-4.95,2.05L30.9867,110.8824a7,7,0,0,0,4.95,11.95H115.929a7,7,0,0,0,4.95-11.95L80.8825,70.8862a7,7,0,0,0-4.95-2.05Z"/><rect class="cls-2" x="47.6511" y="115.9373" width="56.5633" height="56.5633"/><g class="cls-8"><rect class="cls-4" x="66.6346" y="115.9373" width="56.5633" height="56.5633"/></g><polygon class="cls-2" points="115.929 115.832 35.936 115.832 75.933 75.836 115.929 115.832"/><g class="cls-9"><polygon class="cls-4" points="133.187 115.832 53.194 115.832 93.19 75.836 133.187 115.832"/></g><rect class="cls-5" x="47.6511" y="115.9373" width="56.5633" height="56.5633"/><polygon class="cls-5" points="115.929 115.832 35.936 115.832 75.933 75.836 115.929 115.832"/><rect class="cls-7" x="67.7962" y="149.6934" width="16.273" height="22.8071"/><rect class="cls-5" x="67.7962" y="149.6934" width="16.273" height="22.8071"/><rect class="cls-6" x="55.3667" y="126.505" width="11.5057" height="13.7446"/><rect class="cls-6" x="83.842" y="126.505" width="11.5057" height="13.7446"/><rect class="cls-5" x="55.3667" y="126.505" width="11.5057" height="13.7446"/><rect class="cls-5" x="83.842" y="126.505" width="11.5057" height="13.7446"/><text class="cls-10" transform="translate(118.5273 38.2041)">H<tspan class="cls-11" x="7.5186" y="0">O</tspan><tspan x="14.8848" y="0">TE</tspan><tspan class="cls-12" x="28.0508" y="0">L</tspan></text></g></svg>