<?xml version="1.0" encoding="UTF-8" standalone="no"?>
<!-- Created with Inkscape (http://www.inkscape.org/) -->

<svg
   xmlns:dc="http://purl.org/dc/elements/1.1/"
   xmlns:cc="http://creativecommons.org/ns#"
   xmlns:rdf="http://www.w3.org/1999/02/22-rdf-syntax-ns#"
   xmlns:svg="http://www.w3.org/2000/svg"
   xmlns="http://www.w3.org/2000/svg"
   xmlns:sodipodi="http://sodipodi.sourceforge.net/DTD/sodipodi-0.dtd"
   xmlns:inkscape="http://www.inkscape.org/namespaces/inkscape"
   width="148.34552mm"
   height="135.82544mm"
   viewBox="0 0 148.34552 135.82544"
   version="1.1"
   id="svg4307"
   inkscape:version="0.92.2 5c3e80d, 2017-08-06"
   sodipodi:docname="house1.svg">
  <defs
     id="defs4301" />
  <sodipodi:namedview
     id="base"
     pagecolor="#ffffff"
     bordercolor="#666666"
     borderopacity="1.0"
     inkscape:pageopacity="0.0"
     inkscape:pageshadow="2"
     inkscape:zoom="0.35"
     inkscape:cx="303.19515"
     inkscape:cy="188.10658"
     inkscape:document-units="mm"
     inkscape:current-layer="layer1"
     showgrid="false"
     inkscape:window-width="1366"
     inkscape:window-height="703"
     inkscape:window-x="0"
     inkscape:window-y="0"
     inkscape:window-maximized="1" />
  <metadata
     id="metadata4304">
    <rdf:RDF>
      <cc:Work
         rdf:about="">
        <dc:format>image/svg+xml</dc:format>
        <dc:type
           rdf:resource="http://purl.org/dc/dcmitype/StillImage" />
        <dc:title></dc:title>
      </cc:Work>
    </rdf:RDF>
  </metadata>
  <g
     inkscape:label="Layer 1"
     inkscape:groupmode="layer"
     id="layer1"
     transform="translate(-25.612949,-62.777759)">
    <path
       d="M 161.87582,198.6032 H 37.693471 c -6.671733,0 -12.080522,-5.40844 -12.080522,-12.08052 V 74.858279 c 0,-6.67209 5.408789,-12.08052 12.080522,-12.08052 H 161.87582 c 6.67103,0 12.08264,5.40843 12.08264,12.08052 V 186.52268 c 0,6.67208 -5.41161,12.08052 -12.08264,12.08052"
       style="fill:#d6dad6;fill-opacity:1;fill-rule:evenodd;stroke:none;stroke-width:0.03527778"
       id="path4149"
       inkscape:connector-curvature="0" />
    <path
       d="m 137.01558,108.26104 h -4.21569 L 113.79222,96.438399 c -7.70466,-4.79707 -20.316469,-4.79707 -28.017609,0 L 66.766944,108.26104 h -4.208637 c -0.687916,0 -1.245306,0.39829 -1.245306,0.88759 v 7.08977 c 0,0.4886 0.55739,0.88654 1.245306,0.88654 h 6.399387 14.386277 c 9.041697,0 23.837199,0 32.875359,0 h 14.38628 6.40997 c 0.68087,0 1.23824,-0.39794 1.23824,-0.88654 v -7.08977 c 0,-0.4893 -0.55737,-0.88759 -1.23824,-0.88759"
       style="fill:#201d1c;fill-opacity:1;fill-rule:nonzero;stroke:none;stroke-width:0.03527778"
       id="path4151"
       inkscape:connector-curvature="0" />
    <path
       d="m 76.736444,158.43557 c 0.687917,0 1.245307,-0.55563 1.245307,-1.24178 v -36.16396 c 0,-0.68544 -0.55739,-1.2446 -1.245307,-1.2446 h -6.025443 c -0.68439,0 -1.241777,0.55916 -1.241777,1.2446 v 36.16396 c 0,0.68615 0.557387,1.24178 1.241777,1.24178 h 6.025443"
       style="fill:#201d1c;fill-opacity:1;fill-rule:nonzero;stroke:none;stroke-width:0.03527778"
       id="path4153"
       inkscape:connector-curvature="0" />
    <path
       d="m 89.768055,158.43557 c 0.684389,0 1.241779,-0.55563 1.241779,-1.24178 v -36.16396 c 0,-0.68544 -0.55739,-1.2446 -1.241779,-1.2446 h -6.025444 c -0.687917,0 -1.245306,0.55916 -1.245306,1.2446 v 36.16396 c 0,0.68615 0.557389,1.24178 1.245306,1.24178 h 6.025444"
       style="fill:#201d1c;fill-opacity:1;fill-rule:nonzero;stroke:none;stroke-width:0.03527778"
       id="path4155"
       inkscape:connector-curvature="0" />
    <path
       d="m 115.83128,158.43557 c 0.68439,0 1.23825,-0.55563 1.23825,-1.24178 v -36.16396 c 0,-0.68544 -0.55386,-1.2446 -1.23825,-1.2446 h -6.02897 c -0.68792,0 -1.24178,0.55916 -1.24178,1.2446 v 36.16396 c 0,0.68615 0.55386,1.24178 1.24178,1.24178 h 6.02897"
       style="fill:#201d1c;fill-opacity:1;fill-rule:nonzero;stroke:none;stroke-width:0.03527778"
       id="path4157"
       inkscape:connector-curvature="0" />
    <path
       d="m 102.79967,158.43557 c 0.68791,0 1.23825,-0.55563 1.23825,-1.24178 v -36.16396 c 0,-0.68544 -0.55034,-1.2446 -1.23825,-1.2446 h -6.025449 c -0.687916,0 -1.245303,0.55916 -1.245303,1.2446 v 36.16396 c 0,0.68615 0.557387,1.24178 1.245303,1.24178 h 6.025449"
       style="fill:#201d1c;fill-opacity:1;fill-rule:nonzero;stroke:none;stroke-width:0.03527778"
       id="path4159"
       inkscape:connector-curvature="0" />
    <path
       d="m 128.86288,158.7894 c 0.68439,0 1.23825,-0.55562 1.23825,-1.24354 v -36.16148 c 0,-0.68475 -0.55386,-1.24178 -1.23825,-1.24178 h -6.02544 c -0.69145,0 -1.24531,0.55703 -1.24531,1.24178 v 36.16148 c 0,0.68792 0.55386,1.24354 1.24531,1.24354 h 6.02544"
       style="fill:#201d1c;fill-opacity:1;fill-rule:nonzero;stroke:none;stroke-width:0.03527778"
       id="path4161"
       inkscape:connector-curvature="0" />
    <path
       d="m 113.96861,162.75709 c 0,0.47167 -0.55739,0.85373 -1.2453,0.85373 H 86.843528 c -0.68439,0 -1.241777,-0.38206 -1.241777,-0.85373 v -0.48895 c 0,-0.47166 0.557387,-0.85231 1.241777,-0.85231 h 25.879782 c 0.68791,0 1.2453,0.38065 1.2453,0.85231 v 0.48895 m 0,3.54613 c 0,0.47201 -0.55739,0.85266 -1.2453,0.85266 H 86.843528 c -0.68439,0 -1.241777,-0.38065 -1.241777,-0.85266 v -0.48719 c 0,-0.47378 0.557387,-0.85231 1.241777,-0.85231 h 25.879782 c 0.68791,0 1.2453,0.37853 1.2453,0.85231 v 0.48719 m 23.04697,-6.62693 H 62.558307 c -0.687916,0 -1.245306,0.39863 -1.245306,0.88758 v 7.08943 c 0,0.48895 0.55739,0.88723 1.245306,0.88723 h 74.457273 c 0.68087,0 1.23824,-0.39828 1.23824,-0.88723 v -7.08943 c 0,-0.48895 -0.55737,-0.88758 -1.23824,-0.88758"
       style="fill:#201d1c;fill-opacity:1;fill-rule:nonzero;stroke:none;stroke-width:0.03527778"
       id="path4163"
       inkscape:connector-curvature="0" />
    <path
       d="M 161.87582,198.6032 H 92.205751 v 0 h 69.670069 c 1.90853,0 3.71123,-0.44168 5.31636,-1.22908 -1.60513,0.7874 -3.40783,1.22908 -5.31636,1.22908 m 5.35164,-1.24742 c 0.004,-8e-4 0.004,-0.001 0.007,-0.002 -0.004,7.9e-4 -0.004,0.001 -0.007,0.002"
       style="fill:#d6dad6;fill-opacity:1;fill-rule:nonzero;stroke:none;stroke-width:0.03527778"
       id="path4165"
       inkscape:connector-curvature="0" />
    <path
       d="M 161.87582,198.6032 H 92.205751 c -0.437446,-0.13653 -0.744363,-0.44274 -0.744363,-0.80504 v -0.23848 c -0.627944,-0.0455 -1.118304,-0.41945 -1.118304,-0.87771 v -0.23848 c -0.624416,-0.0459 -1.114779,-0.4198 -1.114779,-0.87806 v -0.23848 c -0.627944,-0.0459 -1.118304,-0.41981 -1.118304,-0.87806 v -0.23848 c -0.624417,-0.0459 -1.11478,-0.41981 -1.11478,-0.87807 v -0.23847 c -0.627943,-0.0459 -1.118303,-0.41945 -1.118303,-0.87807 v -0.23847 c -0.624417,-0.0455 -1.11478,-0.41946 -1.11478,-0.87807 v -0.23812 c -0.627944,-0.0459 -1.118304,-0.41981 -1.118304,-0.87842 v -0.23848 c -0.624416,-0.0455 -1.114779,-0.41945 -1.114779,-0.87771 v -0.23848 c -0.627944,-0.0459 -1.118304,-0.4198 -1.118304,-0.87806 v -0.23848 c -0.624417,-0.0459 -1.11478,-0.4198 -1.11478,-0.87806 v -0.23848 c -0.627943,-0.0459 -1.118303,-0.41945 -1.118303,-0.87806 v -0.23848 c -0.624417,-0.0455 -1.114777,-0.41945 -1.114777,-0.87771 v -0.23883 c -0.627947,-0.0455 -1.118307,-0.41946 -1.118307,-0.87771 v -0.23848 c -0.624416,-0.0459 -1.114777,-0.41981 -1.114777,-0.87807 v -0.23847 c -0.627946,-0.0459 -1.118306,-0.41981 -1.118306,-0.87807 v -0.23847 c -0.624417,-0.0459 -1.114777,-0.41981 -1.114777,-0.87807 v -0.23848 c -0.627946,-0.0459 -1.118306,-0.4198 -1.118306,-0.87806 v -0.23848 c -0.624417,-0.0455 -1.114777,-0.41945 -1.114777,-0.87806 v -0.23848 c -0.627947,-0.0455 -1.118307,-0.41945 -1.118307,-0.87771 v -0.23848 c -0.624416,-0.0459 -1.114777,-0.4198 -1.114777,-0.87806 v -0.23848 c -0.627946,-0.0459 -1.118306,-0.4198 -1.118306,-0.87806 v -0.23848 c -0.624417,-0.0459 -1.114777,-0.41981 -1.114777,-0.87806 v -0.23848 c -0.627946,-0.0459 -1.118306,-0.41981 -1.118306,-0.87807 v -0.23848 c -0.624417,-0.0455 -1.114777,-0.41945 -1.114777,-0.87806 v -0.23812 c -0.624417,-0.0459 -1.118307,-0.41981 -1.118307,-0.87807 v -0.23883 c -0.624416,-0.0455 -1.114777,-0.41945 -1.114777,-0.87771 v -0.23389 c 0.04233,0.003 0.08467,0.005 0.127,0.005 h 74.457273 c 0.68087,0 1.23825,-0.39829 1.23825,-0.88724 v -7.08942 c 0,-0.48895 -0.55738,-0.88759 -1.23825,-0.88759 H 71.727001 c -0.0071,-0.0438 -0.01058,-0.0903 -0.0141,-0.13582 -0.58914,-0.055 -1.058334,-0.51964 -1.11478,-1.11019 0.03881,0.003 0.07408,0.005 0.11289,0.005 h 6.025443 c 0.687917,0 1.245307,-0.55563 1.245307,-1.24178 v -36.16408 c 0,-0.68544 -0.55739,-1.2446 -1.245307,-1.2446 h -6.025445 c -0.68439,0 -1.241777,0.55916 -1.241777,1.2446 v 3.62903 c -0.20814,-0.15875 -0.338667,-0.37077 -0.338667,-0.60502 v -0.23883 c -0.627946,-0.0459 -1.118306,-0.4198 -1.118306,-0.87771 v -0.23883 c -0.624417,-0.0459 -1.114777,-0.4198 -1.114777,-0.87771 v -0.23883 c -0.627946,-0.0459 -1.118307,-0.41945 -1.118307,-0.87771 v -0.23883 c -0.624416,-0.0455 -1.114776,-0.41945 -1.114776,-0.87736 v -0.23918 c -0.624417,-0.0455 -1.118307,-0.41946 -1.118307,-0.87736 v -0.23919 c -0.624417,-0.0455 -1.114777,-0.41945 -1.114777,-0.87735 v -0.23425 c 0.04233,0.003 0.08467,0.004 0.127,0.004 h 6.399387 14.386277 c 9.041696,0 23.837201,0 32.875361,0 h 14.38628 6.40997 c 0.68086,0 1.23825,-0.39793 1.23825,-0.88653 v -7.08977 0 0.23777 c 0.62442,0.0452 1.1183,0.41981 1.1183,0.87877 v 0.23777 c 0.62441,0.0452 1.11477,0.41981 1.11477,0.87842 v 0.23812 c 0.62442,0.0448 1.11831,0.41946 1.11831,0.87842 v 0.23812 c 0.62442,0.0448 1.11478,0.41946 1.11478,0.87842 v 0.23777 c 0.62441,0.0452 1.1183,0.41981 1.1183,0.87877 v 0.23778 c 0.62442,0.0452 1.11478,0.4198 1.11478,0.87876 v 0.23778 c 0.62442,0.0452 1.11831,0.4198 1.11831,0.87841 v 0.23813 c 0.62441,0.0452 1.11477,0.4198 1.11477,0.87877 v 0.23777 c 0.62442,0.0448 1.11831,0.41945 1.11831,0.87842 v 0.23812 c 0.62442,0.0448 1.11478,0.41945 1.11478,0.87842 v 0.23777 c 0.62441,0.0452 1.1183,0.41981 1.1183,0.87877 v 0.23777 c 0.62442,0.0452 1.11478,0.41981 1.11478,0.87877 v 0.23777 c 0.62442,0.0452 1.11831,0.41981 1.11831,0.87877 v 0.23777 c 0.62441,0.0452 1.11477,0.41981 1.11477,0.87842 v 0.23813 c 0.62442,0.0452 1.11831,0.4198 1.11831,0.87841 v 0.23813 c 0.62442,0.0448 1.11478,0.41945 1.11478,0.87841 v 0.23813 c 0.62441,0.0448 1.1183,0.41945 1.1183,0.87842 v 0.23777 c 0.62442,0.0452 1.11478,0.41981 1.11478,0.87877 v 0.23777 c 0.62442,0.0452 1.11831,0.41981 1.11831,0.87877 v 0.23777 c 0.62088,0.0452 1.11477,0.41945 1.11477,0.87842 v 0.23812 c 0.62442,0.0448 1.11831,0.41946 1.11831,0.87842 v 0.23813 c 0.62089,0.0448 1.11478,0.41945 1.11478,0.87841 v 0.23813 c 0.62441,0.0448 1.1183,0.41945 1.1183,0.87841 v 0.23778 c 0.62089,0.0452 1.11478,0.4198 1.11478,0.87877 v 0.23777 c 0.62442,0.0451 1.11831,0.4198 1.11831,0.87877 v 0.23777 c 0.62088,0.0452 1.11477,0.4198 1.11477,0.87877 v 0.23777 c 0.62442,0.0448 1.11478,0.41945 1.11478,0.87842 v 0.23812 c 0.62442,0.0448 1.11831,0.41946 1.11831,0.87842 v 0.23777 c 0.62441,0.0452 1.11477,0.41981 1.11477,0.87877 v 0.23777 c 0.62442,0.0452 1.11831,0.41981 1.11831,0.87877 v 0.23777 c 0.62442,0.0452 1.11478,0.41981 1.11478,0.87878 v 0.23777 c 0.54328,0.0392 0.98425,0.32738 1.09361,0.70308 v 41.82217 0 c 0,4.74803 -2.74108,8.85648 -6.72395,10.83098 -0.004,7.9e-4 -0.004,0.001 -0.007,0.002 -0.0106,0.006 -0.0247,0.0123 -0.0353,0.0183 -1.60514,0.7874 -3.40783,1.22908 -5.31636,1.22908 m -39.03842,-78.46042 c -0.69145,0 -1.24531,0.55704 -1.24531,1.24178 v 36.16148 c 0,0.68792 0.55386,1.24355 1.24531,1.24355 h 6.02544 c 0.68439,0 1.23825,-0.55563 1.23825,-1.24355 v -36.16147 c 0,-0.68475 -0.55386,-1.24178 -1.23825,-1.24178 h -6.02544 m -13.03514,-0.35717 c -0.68791,0 -1.24177,0.55916 -1.24177,1.2446 v 36.16396 c 0,0.68615 0.55386,1.24178 1.24177,1.24178 h 6.02898 c 0.68438,0 1.23825,-0.55563 1.23825,-1.24178 v -36.16396 c 0,-0.68544 -0.55387,-1.2446 -1.23825,-1.2446 h -6.02898 m -13.028081,0 c -0.687917,0 -1.245304,0.55916 -1.245304,1.2446 v 36.16396 c 0,0.68615 0.557387,1.24178 1.245304,1.24178 h 6.025451 c 0.68791,0 1.23825,-0.55563 1.23825,-1.24178 v -36.16396 c 0,-0.68544 -0.55034,-1.2446 -1.23825,-1.2446 h -6.025451 m -13.031611,0 c -0.687916,0 -1.245306,0.55916 -1.245306,1.2446 v 36.16396 c 0,0.68615 0.55739,1.24178 1.245306,1.24178 h 6.025444 c 0.68439,0 1.24178,-0.55563 1.24178,-1.24178 v -36.16396 c 0,-0.68544 -0.55739,-1.2446 -1.24178,-1.2446 h -6.025441 m -14.273387,37.46183 c 0,-2.7e-4 0,-8e-4 0,-8e-4 0,0 0,2.7e-4 0,8e-4 m 0,-0.007 c 0,-2.7e-4 0,-0.001 0,-0.001 0,2.6e-4 0,0.001 0,0.001 m 0,-0.007 c 0,-8e-4 0,-0.002 0,-0.002 0,7.9e-4 0,0.002 0,0.002 m 0,-0.007 c 0,-10e-4 0,-0.002 0,-0.003 0,0.001 0,0.002 0,0.003 m 0,-0.008 c 0,-0.001 0,-0.002 0,-0.004 0,0.001 0,0.003 0,0.004 m 0,-0.007 c 0,-0.002 0,-0.004 0,-0.005 0,0.002 0,0.004 0,0.005 m 0,-0.008 c 0,-0.003 0,-0.005 0,-0.008 v 0 c 0,0.003 0,0.005 0,0.008 m -8.152696,-40.92077 v 0 0 m 0,-0.005 c 0,-2.6e-4 0,-7.9e-4 0,-7.9e-4 0,2.6e-4 0,2.6e-4 0,7.9e-4 m 0,-0.005 c 0,-2.6e-4 0,-7.9e-4 0,-0.001 0,2.7e-4 0,8e-4 0,0.001 m 0,-0.005 c 0,-2.6e-4 0,-0.001 0,-0.002 0,8e-4 0,0.001 0,0.002 m 0,-0.005 c 0,-7.9e-4 0,-10e-4 0,-0.002 0,8e-4 0,0.001 0,0.002 m 0,-0.005 c 0,-10e-4 0,-0.002 0,-0.003 0,0.001 0,0.002 0,0.003 m -0.0035,-0.005 c 0,-0.001 0,-0.002 0,-0.004 0,0.001 0,0.002 0,0.004 m 0,-0.006 c 0,-0.002 0,-0.004 0,-0.006 v 0 c 0,0.002 0,0.004 0,0.006"
       style="fill:#b5bdb8;fill-opacity:1;fill-rule:nonzero;stroke:none;stroke-width:0.03527778"
       id="path4167"
       inkscape:connector-curvature="0" />
    <path
       d="m 137.01558,117.12494 h -20.79625 c -9.03816,0 -23.833662,0 -32.875359,0 H 68.957694 62.558307 c -0.04233,0 -0.08467,-10e-4 -0.127,-0.004 v -0.005 c -0.606779,-0.0445 -1.086556,-0.39688 -1.114779,-0.83503 v 0 c 0,-0.002 0,-0.003 0,-0.005 0,-2.6e-4 0,-2.6e-4 0,-7.9e-4 0,-0.001 0,-0.003 0,-0.005 0,-2.7e-4 0,-7.9e-4 0,-0.001 0,-0.001 0,-0.003 0,-0.004 0,-2.7e-4 0,-10e-4 0,-0.002 0,-0.001 0,-0.002 0,-0.004 0,-8e-4 0,-10e-4 0,-0.002 0,-0.001 0,-0.002 0,-0.003 0,-0.001 0,-0.002 0,-0.003 0,-0.001 0,-0.002 -0.0035,-0.002 0,-0.001 0,-0.002 0,-0.004 0,-8e-4 0,-0.001 0,-0.002 0,-0.002 0,-0.004 0,-0.006 v -7.08971 c 0,-0.48931 0.55739,-0.88759 1.245306,-0.88759 h 4.208637 L 85.774619,96.437099 c 3.848806,-2.39853 8.928806,-3.59763 14.008806,-3.59763 5.076475,0 10.156475,1.1991 14.008805,3.59763 l 19.00767,11.822641 h 4.21569 c 0.68086,0 1.23825,0.39829 1.23825,0.88759 v 7.08977 c 0,0.4886 -0.55739,0.88654 -1.23825,0.88654"
       style="fill:#1d1b1b;fill-opacity:1;fill-rule:nonzero;stroke:none;stroke-width:0.03527778"
       id="path4169"
       inkscape:connector-curvature="0" />
    <path
       d="m 76.736444,158.43557 h -6.025443 c -0.03881,0 -0.07408,-0.002 -0.11289,-0.005 0,-0.002 0,-0.004 0,-0.006 -0.613833,-0.0571 -1.100667,-0.55492 -1.128887,-1.17687 0,-2.7e-4 0,-8e-4 0,-8e-4 0,-0.002 0,-0.005 0,-0.007 0,-2.6e-4 0,-0.001 0,-0.001 0,-0.002 0,-0.004 0,-0.006 0,-7.9e-4 0,-0.002 0,-0.002 0,-0.002 0,-0.003 0,-0.005 0,-0.001 0,-0.002 0,-0.003 0,-0.001 0,-0.003 0,-0.005 0,-10e-4 0,-0.002 0,-0.004 0,-0.001 0,-0.002 0,-0.004 0,-0.002 0,-0.003 0,-0.005 0,-7.9e-4 0,-0.002 0,-0.002 0,-0.003 0,-0.005 0,-0.008 v -32.53492 0 -3.62903 c 0,-0.68545 0.557387,-1.2446 1.241777,-1.2446 h 6.025443 c 0.687917,0 1.245307,0.55915 1.245307,1.2446 v 36.16395 c 0,0.68616 -0.55739,1.24178 -1.245307,1.24178"
       style="fill:#1d1b1b;fill-opacity:1;fill-rule:nonzero;stroke:none;stroke-width:0.03527778"
       id="path4171"
       inkscape:connector-curvature="0" />
    <path
       d="m 89.768055,158.43557 h -6.025444 c -0.687917,0 -1.245306,-0.55563 -1.245306,-1.24178 v -36.16396 c 0,-0.68544 0.557389,-1.2446 1.245306,-1.2446 h 6.025444 c 0.684389,0 1.241779,0.55916 1.241779,1.2446 v 36.16396 c 0,0.68615 -0.55739,1.24178 -1.241779,1.24178"
       style="fill:#1d1b1b;fill-opacity:1;fill-rule:nonzero;stroke:none;stroke-width:0.03527778"
       id="path4173"
       inkscape:connector-curvature="0" />
    <path
       d="m 115.83128,158.43557 h -6.02897 c -0.68792,0 -1.24178,-0.55563 -1.24178,-1.24178 v -36.16396 c 0,-0.68544 0.55386,-1.2446 1.24178,-1.2446 h 6.02897 c 0.68439,0 1.23825,0.55916 1.23825,1.2446 v 36.16396 c 0,0.68615 -0.55386,1.24178 -1.23825,1.24178"
       style="fill:#1d1b1b;fill-opacity:1;fill-rule:nonzero;stroke:none;stroke-width:0.03527778"
       id="path4175"
       inkscape:connector-curvature="0" />
    <path
       d="m 102.79967,158.43557 h -6.025449 c -0.687916,0 -1.245303,-0.55563 -1.245303,-1.24178 v -36.16396 c 0,-0.68544 0.557387,-1.2446 1.245303,-1.2446 h 6.025449 c 0.68791,0 1.23825,0.55916 1.23825,1.2446 v 36.16396 c 0,0.68615 -0.55034,1.24178 -1.23825,1.24178"
       style="fill:#1d1b1b;fill-opacity:1;fill-rule:nonzero;stroke:none;stroke-width:0.03527778"
       id="path4177"
       inkscape:connector-curvature="0" />
    <path
       d="m 61.316528,167.69105 c 0,-2.7e-4 0,-8e-4 0,-8e-4 0,0 0,2.7e-4 0,8e-4 m 0,-0.005 c 0,-2.7e-4 0,-8e-4 0,-0.001 0,2.6e-4 0,7.9e-4 0,0.001 m 0,-0.005 c 0,-2.6e-4 0,-0.001 0,-0.002 0,8e-4 0,0.001 0,0.002 m 0,-0.005 c 0,-7.9e-4 0,-0.001 0,-0.002 0,7.9e-4 0,0.001 0,0.002 m 0,-0.005 c 0,-0.001 0,-0.002 0,-0.003 0,7.9e-4 0,0.002 0,0.003 m -0.0035,-0.006 c 0,-0.001 0,-0.002 0,-0.003 0,0.001 0,0.002 0,0.003 m 0,-0.005 c 0,-0.002 0,-0.004 0,-0.006 v 0 c 0,0.002 0,0.004 0,0.006 m 51.410302,-0.50306 H 86.843536 c -0.68439,0 -1.241777,-0.38065 -1.241777,-0.85266 v -0.48719 c 0,-0.47378 0.557387,-0.85231 1.241777,-0.85231 h 25.879774 c 0.68792,0 1.24531,0.37853 1.24531,0.85231 v 0.48719 c 0,0.47201 -0.55739,0.85266 -1.24531,0.85266 m 0,-3.54506 H 86.843536 c -0.68439,0 -1.241777,-0.38206 -1.241777,-0.85372 v -0.48895 c 0,-0.47167 0.557387,-0.85232 1.241777,-0.85232 h 25.879774 c 0.68792,0 1.24531,0.38065 1.24531,0.85232 v 0.48895 c 0,0.47166 -0.55739,0.85372 -1.24531,0.85372"
       style="fill:#b5bdb8;fill-opacity:1;fill-rule:nonzero;stroke:none;stroke-width:0.03527778"
       id="path4179"
       inkscape:connector-curvature="0" />
    <path
       d="m 128.86288,158.7894 h -6.02544 c -0.69145,0 -1.24531,-0.55562 -1.24531,-1.24354 v -36.16148 c 0,-0.68475 0.55386,-1.24178 1.24531,-1.24178 h 6.02544 c 0.68439,0 1.23825,0.55703 1.23825,1.24178 v 36.16148 c 0,0.68792 -0.55386,1.24354 -1.23825,1.24354"
       style="fill:#1d1b1b;fill-opacity:1;fill-rule:nonzero;stroke:none;stroke-width:0.03527778"
       id="path4181"
       inkscape:connector-curvature="0" />
    <path
       d="M 137.01558,168.54053 H 62.558307 c -0.04233,0 -0.08467,-0.002 -0.127,-0.005 v -0.005 c -0.610306,-0.0444 -1.090083,-0.39935 -1.114779,-0.84032 0,-2.6e-4 0,-7.9e-4 0,-7.9e-4 0,-0.001 0,-0.003 0,-0.005 0,-2.6e-4 0,-7.9e-4 0,-10e-4 0,-0.001 0,-0.003 0,-0.004 0,-7.9e-4 0,-0.001 0,-0.002 0,-0.001 0,-0.002 0,-0.004 0,-7.9e-4 0,-0.001 0,-0.002 0,-0.001 0,-0.002 0,-0.003 0,-0.001 0,-0.002 0,-0.003 0,-0.001 0,-0.002 -0.0035,-0.003 0,-0.001 0,-0.002 0,-0.003 0,-7.9e-4 0,-0.001 0,-0.002 0,-0.002 0,-0.004 0,-0.006 v -7.08943 c 0,-0.48895 0.55739,-0.88758 1.245306,-0.88758 h 9.168694 v 0 h 65.288582 c 0.68085,0 1.23824,0.39863 1.23824,0.88758 v 7.08943 c 0,0.48895 -0.55739,0.88723 -1.23824,0.88723 m -50.172063,-3.57666 c -0.68439,0 -1.241777,0.37853 -1.241777,0.85231 v 0.48719 c 0,0.47201 0.557387,0.85266 1.241777,0.85266 h 25.879773 c 0.68792,0 1.24531,-0.38065 1.24531,-0.85266 v -0.48719 c 0,-0.47378 -0.55739,-0.85231 -1.24531,-0.85231 H 86.843528 m 0,-3.54789 c -0.68439,0 -1.241777,0.38065 -1.241777,0.85231 v 0.48895 c 0,0.47167 0.557387,0.85373 1.241777,0.85373 h 25.879782 c 0.68791,0 1.2453,-0.38206 1.2453,-0.85373 v -0.48895 c 0,-0.47166 -0.55739,-0.85231 -1.2453,-0.85231 H 86.843528"
       style="fill:#1d1b1b;fill-opacity:1;fill-rule:nonzero;stroke:none;stroke-width:0.03527778"
       id="path4183"
       inkscape:connector-curvature="0" />
  </g>
</svg>
