<?xml version="1.0" encoding="UTF-8" standalone="no"?>
<!-- Created with Inkscape (http://www.inkscape.org/) -->

<svg
   xmlns:dc="http://purl.org/dc/elements/1.1/"
   xmlns:cc="http://creativecommons.org/ns#"
   xmlns:rdf="http://www.w3.org/1999/02/22-rdf-syntax-ns#"
   xmlns:svg="http://www.w3.org/2000/svg"
   xmlns="http://www.w3.org/2000/svg"
   xmlns:sodipodi="http://sodipodi.sourceforge.net/DTD/sodipodi-0.dtd"
   xmlns:inkscape="http://www.inkscape.org/namespaces/inkscape"
   width="92.911079mm"
   height="92.910728mm"
   viewBox="0 0 92.911079 92.910728"
   version="1.1"
   id="svg4027"
   inkscape:version="0.92.2 5c3e80d, 2017-08-06"
   sodipodi:docname="jail2.svg">
  <defs
     id="defs4021" />
  <sodipodi:namedview
     id="base"
     pagecolor="#ffffff"
     bordercolor="#666666"
     borderopacity="1.0"
     inkscape:pageopacity="0.0"
     inkscape:pageshadow="2"
     inkscape:zoom="0.35"
     inkscape:cx="175.57999"
     inkscape:cy="175.57934"
     inkscape:document-units="mm"
     inkscape:current-layer="layer1"
     showgrid="false"
     inkscape:window-width="1366"
     inkscape:window-height="703"
     inkscape:window-x="0"
     inkscape:window-y="0"
     inkscape:window-maximized="1" />
  <metadata
     id="metadata4024">
    <rdf:RDF>
      <cc:Work
         rdf:about="">
        <dc:format>image/svg+xml</dc:format>
        <dc:type
           rdf:resource="http://purl.org/dc/dcmitype/StillImage" />
        <dc:title></dc:title>
      </cc:Work>
    </rdf:RDF>
  </metadata>
  <g
     inkscape:label="Layer 1"
     inkscape:groupmode="layer"
     id="layer1"
     transform="translate(-59.377793,-102.37797)">
    <path
       d="M 140.98235,195.2887 H 70.68432 c -6.244166,0 -11.306527,-5.06166 -11.306527,-11.30583 v -70.29943 c 0,-6.24382 5.062361,-11.30547 11.306527,-11.30547 h 70.29803 c 6.24416,0 11.30652,5.06165 11.30652,11.30547 v 70.29943 c 0,6.24417 -5.06236,11.30583 -11.30652,11.30583"
       style="fill:#e9eae9;fill-opacity:1;fill-rule:nonzero;stroke:none;stroke-width:0.03527778"
       id="path22"
       inkscape:connector-curvature="0" />
    <path
       d="M 139.80054,119.96994 H 71.866126 v 6.20536 h 67.934414 v -6.20536"
       style="fill:#43403c;fill-opacity:1;fill-rule:nonzero;stroke:none;stroke-width:0.03527778"
       id="path38"
       inkscape:connector-curvature="0" />
    <path
       d="m 123.9714,158.6178 h 7.87753 v 12.87357 h -7.87753 z m 3.73945,-7.93362 c 0.8255,0 1.49577,0.66922 1.49577,1.49472 0,0.54363 -0.28927,1.01812 -0.72319,1.27988 v 1.73637 c 0,0.42333 -0.34925,0.76941 -0.77258,0.76941 -0.42334,0 -0.76906,-0.34608 -0.76906,-0.76941 v -1.73637 c -0.43392,-0.26176 -0.72319,-0.73625 -0.72319,-1.27988 0,-0.8255 0.66675,-1.49472 1.49225,-1.49472 z m 12.08969,20.80719 h -4.78719 v -43.16166 h -3.16442 v 19.89138 h -7.87753 v -19.89138 h -3.16089 v 43.16166 h -7.87752 v -43.16166 h -3.16089 v 43.16166 h -7.87753 v -43.16166 h -3.164417 v 43.16166 h -7.874 v -43.16166 h -3.164416 v 43.16166 h -7.874 V 128.32971 H 76.65332 v 43.16166 h -4.787194 v 6.20536 h 67.934414 v -6.20536"
       style="fill:#43403c;fill-opacity:1;fill-rule:nonzero;stroke:none;stroke-width:0.03527778"
       id="path40"
       inkscape:connector-curvature="0" />
  </g>
</svg>
