<?xml version="1.0" encoding="UTF-8" standalone="no"?>
<!-- Created with Inkscape (http://www.inkscape.org/) -->

<svg
   xmlns:dc="http://purl.org/dc/elements/1.1/"
   xmlns:cc="http://creativecommons.org/ns#"
   xmlns:rdf="http://www.w3.org/1999/02/22-rdf-syntax-ns#"
   xmlns:svg="http://www.w3.org/2000/svg"
   xmlns="http://www.w3.org/2000/svg"
   xmlns:sodipodi="http://sodipodi.sourceforge.net/DTD/sodipodi-0.dtd"
   xmlns:inkscape="http://www.inkscape.org/namespaces/inkscape"
   width="148.3441mm"
   height="135.82544mm"
   viewBox="0 0 148.3441 135.82544"
   version="1.1"
   id="svg4404"
   inkscape:version="0.92.2 5c3e80d, 2017-08-06"
   sodipodi:docname="trade.svg">
  <defs
     id="defs4398" />
  <sodipodi:namedview
     id="base"
     pagecolor="#ffffff"
     bordercolor="#666666"
     borderopacity="1.0"
     inkscape:pageopacity="0.0"
     inkscape:pageshadow="2"
     inkscape:zoom="0.35"
     inkscape:cx="300.33532"
     inkscape:cy="234.60902"
     inkscape:document-units="mm"
     inkscape:current-layer="layer1"
     showgrid="false"
     inkscape:window-width="1366"
     inkscape:window-height="703"
     inkscape:window-x="0"
     inkscape:window-y="0"
     inkscape:window-maximized="1" />
  <metadata
     id="metadata4401">
    <rdf:RDF>
      <cc:Work
         rdf:about="">
        <dc:format>image/svg+xml</dc:format>
        <dc:type
           rdf:resource="http://purl.org/dc/dcmitype/StillImage" />
        <dc:title></dc:title>
      </cc:Work>
    </rdf:RDF>
  </metadata>
  <g
     inkscape:label="Layer 1"
     inkscape:groupmode="layer"
     id="layer1"
     transform="translate(-26.369612,-75.081529)">
    <path
       d="M 162.6332,210.90697 H 38.450487 c -6.672087,0 -12.080875,-5.40879 -12.080875,-12.08052 V 87.162051 c 0,-6.672086 5.408788,-12.080522 12.080875,-12.080522 H 162.6332 c 6.67208,0 12.08052,5.408436 12.08052,12.080522 V 198.82645 c 0,6.67173 -5.40844,12.08052 -12.08052,12.08052"
       style="fill:#d6dad6;fill-opacity:1;fill-rule:evenodd;stroke:none;stroke-width:0.03527778"
       id="path4215"
       inkscape:connector-curvature="0" />
    <path
       d="M 162.6332,210.90697 H 96.182922 c 0.0924,-0.33973 0.20567,-0.67169 0.33337,-0.99731 h -1.48025 c 0.097,-0.381 0.22507,-0.74965 0.36759,-1.11266 h -1.4799 c 0.0967,-0.38064 0.22507,-0.74965 0.36724,-1.11266 h -1.4799 c 0.0967,-0.38064 0.22507,-0.74965 0.36724,-1.11266 h -1.4799 c 0.0967,-0.38064 0.22507,-0.74965 0.36724,-1.11266 h -1.4799 c 0.0967,-0.38065 0.22507,-0.74965 0.36759,-1.11266 h -1.48025 c 0.0967,-0.38065 0.22507,-0.74965 0.36759,-1.11231 h -1.48026 c 0.0967,-0.381 0.22543,-0.74965 0.3676,-1.11266 h -1.48026 c 0.0967,-0.38065 0.22543,-0.74965 0.3676,-1.11266 h -1.48026 c 0.097,-0.38065 0.22543,-0.74965 0.3676,-1.11266 h -1.47991 c 0.0967,-0.38065 0.22508,-0.74966 0.3676,-1.11266 h -1.48026 c 0.0967,-0.38065 0.22507,-0.74966 0.3676,-1.11231 h -1.48026 c 0.0967,-0.381 0.22507,-0.75001 0.3676,-1.11266 h -1.48026 c 0.0967,-0.381 0.22507,-0.75001 0.36759,-1.11266 h -1.48025 c 0.097,-0.381 0.22507,-0.75001 0.36759,-1.11266 h -1.4799 c 0.0967,-0.38065 0.22507,-0.74966 0.36724,-1.11267 h -1.4799 c 0.0967,-0.38064 0.22507,-0.74965 0.36724,-1.11266 h -1.4799 c 0.0967,-0.38064 0.22507,-0.74965 0.36759,-1.11266 h -1.48025 c 0.0967,-0.38064 0.22507,-0.74965 0.36759,-1.11266 h -1.48025 c 0.0967,-0.38064 0.22507,-0.7493 0.36759,-1.11231 h -1.48025 c 0.0967,-0.381 0.22542,-0.74965 0.36759,-1.11266 h -1.48025 c 0.0967,-0.38065 0.22542,-0.74965 0.36759,-1.11266 h -1.48026 c 0.097,-0.38065 0.22543,-0.74965 0.3676,-1.11266 h -1.47991 c 0.0967,-0.38065 0.22508,-0.74965 0.36725,-1.11266 h -1.47991 c 0.0967,-0.38065 0.22508,-0.74965 0.3676,-1.11231 h -1.48026 c 0.0967,-0.381 0.22507,-0.75001 0.3676,-1.11266 h -1.48026 c 0.0967,-0.381 0.22507,-0.75001 0.3676,-1.11266 h -1.48026 c 0.097,-0.381 0.22507,-0.75001 0.36759,-1.11266 h -1.4799 c 0.0967,-0.38065 0.22508,-0.74965 0.36724,-1.11266 h -1.4799 c 0.0967,-0.38065 0.22507,-0.74966 0.36724,-1.11267 h -1.4799 c 0.0967,-0.38064 0.22507,-0.74965 0.3676,-1.11266 h -1.48026 c 0.0967,-0.38064 0.22507,-0.74965 0.36759,-1.11266 h -1.48025 c 0.0967,-0.38065 0.22507,-0.7493 0.36759,-1.11231 h -1.48025 c 1.1176,-4.39914 5.38127,-7.69902 10.4401,-7.69902 h 15.11371 c -0.18627,-0.18662 -0.34784,-0.39652 -0.48684,-0.62195 -0.45261,-0.27904 -0.83361,-0.6604 -1.11266,-1.11266 -0.45226,-0.27905 -0.83361,-0.66005 -1.11266,-1.11266 -0.45226,-0.27905 -0.83361,-0.66005 -1.11266,-1.11266 -0.45226,-0.27905 -0.83361,-0.66005 -1.11266,-1.11266 -0.45226,-0.27905 -0.83361,-0.66005 -1.11266,-1.11231 -0.45226,-0.27905 -0.83362,-0.6604 -1.11266,-1.11266 -0.45226,-0.27905 -0.83326,-0.6604 -1.11231,-1.11266 -0.45226,-0.27905 -0.83361,-0.66005 -1.11266,-1.11266 -0.45226,-0.27905 -0.83361,-0.66005 -1.11266,-1.11266 -0.45226,-0.27905 -0.83362,-0.66005 -1.11266,-1.11266 -0.45227,-0.27905 -0.83327,-0.66005 -1.11267,-1.11267 -0.45226,-0.27904 -0.83326,-0.66004 -1.11266,-1.11266 -0.45226,-0.27905 -0.83326,-0.66005 -1.1123,-1.11231 -0.45262,-0.2794 -0.83362,-0.6604 -1.11266,-1.11266 -0.45227,-0.27904 -0.83362,-0.66004 -1.11267,-1.11266 -0.45226,-0.27904 -0.83361,-0.66004 -1.11266,-1.11266 -0.45226,-0.27905 -0.83361,-0.66005 -1.11266,-1.11266 -0.96943,-0.59796 -1.61925,-1.66582 -1.61925,-2.88996 v -1.70568 c 0,-1.87924 1.52682,-3.39725 3.40184,-3.39725 h 1.7025 v -15.84677 c -0.0512,-0.0705 -0.0995,-0.14288 -0.14569,-0.21731 -0.45191,-0.2794 -0.83326,-0.6604 -1.11231,-1.11266 -0.45226,-0.27905 -0.83362,-0.6604 -1.11266,-1.11267 -0.45227,-0.27904 -0.83362,-0.6604 -1.11267,-1.11266 -0.97049,-0.59901 -1.62101,-1.66899 -1.62101,-2.89313 v -1.69862 c 0,-1.88278 1.52682,-3.40184 3.40184,-3.40184 h 22.74499 c 1.22238,0 2.29376,0.64841 2.89348,1.62031 0.45191,0.27905 0.83327,0.66005 1.11267,1.11266 0.4519,0.27905 0.83326,0.66005 1.1123,1.11266 0.45227,0.27905 0.83362,0.66005 1.11267,1.11266 0.45226,0.27905 0.83361,0.66005 1.11266,1.11266 0.45226,0.27905 0.83326,0.66005 1.11266,1.11267 0.45226,0.27904 0.83326,0.66004 1.11266,1.11266 0.452258,0.27905 0.833258,0.65969 1.112658,1.11266 0.45226,0.27869 0.83326,0.65969 1.11231,1.11231 0.45226,0.27904 0.83361,0.66004 1.11266,1.11266 0.45226,0.27904 0.83361,0.66004 1.11266,1.11266 0.45226,0.27905 0.83361,0.66005 1.11266,1.11266 0.0455,0.0279 0.0921,0.0547 0.13582,0.085 h 1.20932 v -2.44616 h 29.34159 c 1.70921,0 3.24556,0.86007 4.29577,2.21085 0.41346,0.31433 0.78529,0.69145 1.11266,1.11267 0.41346,0.31432 0.78494,0.69109 1.11267,1.11266 0.41345,0.31397 0.78493,0.69109 1.11266,1.11266 0.41345,0.31397 0.78493,0.69109 1.11266,1.11266 0.4131,0.31397 0.78493,0.69109 1.11266,1.11231 0.4131,0.31432 0.78493,0.69144 1.11266,1.11266 0.4131,0.31432 0.78493,0.69144 1.11266,1.11266 0.41311,0.31432 0.78458,0.69109 1.11231,1.11266 0.41346,0.31432 0.78493,0.69109 1.11266,1.11266 0.41346,0.31397 0.78493,0.69109 1.11266,1.11266 0.41346,0.31397 0.78493,0.69109 1.11266,1.11266 0.41346,0.31397 0.78493,0.69109 1.11266,1.11231 0.41311,0.31432 0.78493,0.69145 1.11231,1.11266 0.41346,0.31433 0.78528,0.69145 1.11266,1.11266 0.41346,0.31433 0.78493,0.69109 1.11266,1.11266 0.41346,0.31398 0.78494,0.69109 1.11266,1.11267 0.41346,0.31397 0.78494,0.69109 1.11267,1.11266 0.4131,0.31397 0.78493,0.69109 1.11266,1.1123 0.4131,0.31433 0.78493,0.69145 1.11266,1.11266 0.4131,0.31433 0.78493,0.69145 1.11266,1.11267 0.4131,0.31432 0.78458,0.69109 1.11231,1.11266 0.41345,0.31397 0.78493,0.69109 1.11266,1.11266 0.41346,0.31397 0.78493,0.69109 1.11266,1.11266 0.41346,0.31397 0.78493,0.69109 1.11266,1.11266 0.41346,0.31397 0.78493,0.69109 1.11266,1.11266 0.4131,0.31397 0.78493,0.69109 1.11231,1.11231 0.41346,0.31432 0.78528,0.69145 1.11266,1.11266 0.41346,0.31433 0.78493,0.69109 1.11266,1.11266 0.41346,0.31433 0.78493,0.69109 1.11266,1.11266 0.41346,0.31398 0.78494,0.69109 1.11266,1.11267 0.41134,0.31256 0.78176,0.68791 1.10808,1.10736 v 38.9495 c 0,6.67173 -5.40844,12.08052 -12.08052,12.08052"
       style="fill:#b5bdb8;fill-opacity:1;fill-rule:nonzero;stroke:none;stroke-width:0.03527778"
       id="path4217"
       inkscape:connector-curvature="0" />
    <path
       d="m 89.069512,166.60725 h -19.19676 c -5.05883,0 -9.3225,3.29988 -10.4401,7.69902 h 40.07414 c -1.1183,-4.39914 -5.38233,-7.69902 -10.43728,-7.69902"
       style="fill:#201d1c;fill-opacity:1;fill-rule:evenodd;stroke:none;stroke-width:0.03527778"
       id="path4219"
       inkscape:connector-curvature="0" />
    <path
       d="m 135.93145,123.18031 h -29.34159 v 2.44616 H 88.964732 v -5.44195 h 1.14794 c 1.87431,0 3.40078,-1.52294 3.40078,-3.40184 v -1.69862 c 0,-1.88242 -1.52647,-3.40184 -3.40078,-3.40184 h -22.74499 c -1.87502,0 -3.40149,1.51942 -3.40149,3.40184 v 1.69862 c 0,1.8789 1.52647,3.40184 3.40149,3.40184 h 1.7025 v 18.89372 h -1.7025 c -1.87502,0 -3.40149,1.51765 -3.40149,3.39725 v 1.70568 c 0,1.87924 1.52647,3.39795 3.40149,3.39795 h 22.74499 c 1.87431,0 3.40078,-1.51871 3.40078,-3.39795 v -1.70568 c 0,-1.8796 -1.52647,-3.39725 -3.40078,-3.39725 h -1.14794 v -5.44583 h 17.625128 v 2.44122 h 29.34159 c 3.14572,0 5.71958,-2.8956 5.71958,-6.44666 0,-3.54753 -2.57386,-6.44666 -5.71958,-6.44666"
       style="fill:#201d1c;fill-opacity:1;fill-rule:evenodd;stroke:none;stroke-width:0.03527778"
       id="path4221"
       inkscape:connector-curvature="0" />
  </g>
</svg>
