<?xml version="1.0" encoding="UTF-8" standalone="no"?>
<!-- Created with Inkscape (http://www.inkscape.org/) -->

<svg
   xmlns:dc="http://purl.org/dc/elements/1.1/"
   xmlns:cc="http://creativecommons.org/ns#"
   xmlns:rdf="http://www.w3.org/1999/02/22-rdf-syntax-ns#"
   xmlns:svg="http://www.w3.org/2000/svg"
   xmlns="http://www.w3.org/2000/svg"
   xmlns:sodipodi="http://sodipodi.sourceforge.net/DTD/sodipodi-0.dtd"
   xmlns:inkscape="http://www.inkscape.org/namespaces/inkscape"
   width="92.910522mm"
   height="92.91066mm"
   viewBox="0 0 92.910522 92.91066"
   version="1.1"
   id="svg3981"
   inkscape:version="0.92.2 5c3e80d, 2017-08-06"
   sodipodi:docname="trade2.svg">
  <defs
     id="defs3975" />
  <sodipodi:namedview
     id="base"
     pagecolor="#ffffff"
     bordercolor="#666666"
     borderopacity="1.0"
     inkscape:pageopacity="0.0"
     inkscape:pageshadow="2"
     inkscape:zoom="0.35"
     inkscape:cx="218.43607"
     inkscape:cy="38.436346"
     inkscape:document-units="mm"
     inkscape:current-layer="layer1"
     showgrid="false"
     inkscape:window-width="1366"
     inkscape:window-height="703"
     inkscape:window-x="0"
     inkscape:window-y="0"
     inkscape:window-maximized="1" />
  <metadata
     id="metadata3978">
    <rdf:RDF>
      <cc:Work
         rdf:about="">
        <dc:format>image/svg+xml</dc:format>
        <dc:type
           rdf:resource="http://purl.org/dc/dcmitype/StillImage" />
        <dc:title></dc:title>
      </cc:Work>
    </rdf:RDF>
  </metadata>
  <g
     inkscape:label="Layer 1"
     inkscape:groupmode="layer"
     id="layer1"
     transform="translate(-48.03879,-66.092291)">
    <path
       d="M 129.64384,159.00295 H 59.344399 c -6.243809,0 -11.305609,-5.06166 -11.305609,-11.30582 V 77.39776 c 0,-6.243814 5.0618,-11.305469 11.305609,-11.305469 h 70.299441 c 6.24381,0 11.30547,5.061655 11.30547,11.305469 v 70.29937 c 0,6.24416 -5.06166,11.30582 -11.30547,11.30582"
       style="fill:#e9eae9;fill-opacity:1;fill-rule:nonzero;stroke:none;stroke-width:0.03527778"
       id="path30"
       inkscape:connector-curvature="0" />
    <path
       d="m 112.95392,117.88924 6.34577,-10.99115 6.34576,10.99115 z m -36.919606,0 H 63.342782 l 6.345767,-10.99115 z m 44.485276,-14.04585 v -8.096954 l 0.68933,-0.01834 1.06892,-0.03916 1.07385,-0.0508 -0.0653,-2.583039 -1.0421,-0.01024 -1.04705,-0.02151 -1.92158,-0.05821 c -0.47308,-0.11571 -0.97014,-0.245885 -1.45309,-0.378528 -0.51823,-0.142876 -1.03435,-0.292807 -1.54658,-0.448734 -1.02376,-0.313973 -2.03482,-0.654403 -3.00214,-1.039284 l -1.52858,-0.614186 -1.55364,-0.613833 c -0.52105,-0.2032 -1.05022,-0.401814 -1.58679,-0.595842 -0.53869,-0.192264 -1.0848,-0.380294 -1.65524,-0.54998 -0.56515,-0.173214 -1.15817,-0.325967 -1.77976,-0.446264 -0.62124,-0.118886 -1.27776,-0.206022 -1.96497,-0.21202 -0.68474,-0.0088 -1.39206,0.06138 -2.06869,0.208845 -0.67769,0.146403 -1.320447,0.364066 -1.919464,0.613128 -0.667102,0.283633 -1.282348,0.600427 -1.867252,0.931686 v -2.059164 h 2.422171 v -2.36855 h -1.923346 c 0.246944,-0.494947 0.389467,-1.051278 0.389467,-1.641828 0,-2.036586 -1.651,-3.687586 -3.687585,-3.687586 -2.036588,0 -3.687588,1.651 -3.687588,3.687586 0,0.59055 0.142523,1.146881 0.389115,1.641828 h -1.923344 v 2.36855 h 2.422525 v 2.122664 c -0.618421,-0.354542 -1.27,-0.693562 -1.979438,-0.995186 -0.599368,-0.249062 -1.242129,-0.466725 -1.919817,-0.613128 -0.676626,-0.147461 -1.383593,-0.217664 -2.068335,-0.208845 -0.68721,0.006 -1.343731,0.09313 -1.964973,0.21202 -0.621945,0.120297 -1.214612,0.27305 -1.780117,0.446264 -0.570087,0.169686 -1.116187,0.357716 -1.655233,0.54998 -0.536575,0.194028 -1.065387,0.392642 -1.586442,0.595842 l -1.553633,0.613833 -1.528937,0.614186 c -0.966965,0.384881 -1.978378,0.725311 -3.001787,1.039284 -0.512586,0.155927 -1.028347,0.305858 -1.546578,0.448734 -0.482952,0.132643 -0.980369,0.262818 -1.453444,0.378528 l -1.921228,0.05821 -1.047397,0.02151 -1.042105,0.01024 -0.06491,2.583039 1.073856,0.0508 1.068917,0.03916 0.688975,0.01834 v 8.096954 l -8.109305,14.04585 H 57.55829 c 0,5.94607 5.55942,10.76642 12.41742,10.76642 6.858001,0 12.417426,-4.82035 12.417426,-10.76642 H 79.018111 L 71.052388,104.0921 v -8.501942 c 0.268464,-0.05397 0.535164,-0.109363 0.804686,-0.167217 0.551392,-0.118181 1.101372,-0.244475 1.651353,-0.37818 0.549627,-0.134053 1.098902,-0.278341 1.648529,-0.431093 0.549982,-0.158044 1.099608,-0.318558 1.651355,-0.504825 l 1.57127,-0.52564 1.552575,-0.50941 c 0.516115,-0.166865 1.0287,-0.32526 1.537758,-0.475898 0.508355,-0.147813 1.01318,-0.288571 1.506715,-0.403577 0.989894,-0.235655 1.93534,-0.380647 2.764367,-0.337608 0.415925,0.02222 0.808215,0.08749 1.20156,0.199319 0.392642,0.111478 0.789165,0.270581 1.195565,0.468842 0.813858,0.404637 1.658408,0.962024 2.505781,1.57092 0.367946,0.263525 0.737304,0.540102 1.107017,0.819854 V 138.46006 H 77.143096 v 3.01121 h -4.739569 v 3.56101 h 44.298653 v -3.56101 h -4.73992 v -3.01121 H 97.349502 V 94.831333 c 0.331962,-0.250825 0.663927,-0.49883 0.994479,-0.735542 0.847373,-0.608896 1.692279,-1.166283 2.506129,-1.57092 0.4064,-0.198261 0.80293,-0.357364 1.19557,-0.468842 0.39299,-0.11183 0.78528,-0.177094 1.20156,-0.199319 0.82903,-0.04304 1.77447,0.101953 2.76401,0.337608 0.49354,0.115006 0.99872,0.255764 1.50672,0.403577 0.50941,0.150638 1.02199,0.309033 1.53775,0.475898 l 1.55258,0.50941 1.57127,0.52564 c 0.55175,0.186267 1.10173,0.346781 1.65136,0.504825 0.54962,0.152752 1.09925,0.29704 1.64888,0.431093 0.54963,0.133705 1.09961,0.259999 1.651,0.37818 0.26987,0.05785 0.53622,0.113242 0.80504,0.167217 v 8.501942 l -7.96573,13.79714 h -3.37502 c 0,5.94607 5.55943,10.76642 12.41743,10.76642 6.85764,0 12.41707,-4.82035 12.41707,-10.76642 h -2.8007 l -8.10931,-14.04585"
       style="fill:#43403c;fill-opacity:1;fill-rule:nonzero;stroke:none;stroke-width:0.03527778"
       id="path56"
       inkscape:connector-curvature="0" />
  </g>
</svg>
